#!OML:ASF F:\VICON\USERDATA\INSTALL\rory3\rory3.ASF
:FULLY-SPECIFIED
:DEGREES
808
root 1.92567 33.6485 -5.01307 -169.771 -13.4938 179.993
lowerback 1.5959 -0.741192 -3.08665
upperback -0.9259 -1.04478 1.75445
thorax -1.75888 -0.479162 3.56953
lowerneck -17.158 1.70926 -12.6105
upperneck 38.2177 3.15063 0.688969
head 16.4531 -1.69251 2.72778
rclavicle 2.94201e-014 2.52457e-014
rhumerus -31.1067 30.7872 -92.003
rradius 102.437
rwrist 54.1611
rhand 12.7129 -14.504
rfingers 7.12502
rthumb 37.6946 -40.3857
lclavicle 2.94201e-014 2.52457e-014
lhumerus -11.4562 -28.9449 93.6841
lradius 77.0345
lwrist -44.7791
lhand -40.7871 31.0947
lfingers 7.12502
lthumb -13.7265 60.6219
rfemur -18.5018 2.81593 22.3408
rtibia 31.0042
rfoot -15.6369 -2.5963
rtoes 8.87484
lfemur -19.6183 6.14184 -24.9261
ltibia 30.1486
lfoot -10.8473 9.50345
ltoes -15.6399
809
root 1.91135 33.6445 -5.01293 -169.681 -13.4843 179.972
lowerback 1.4561 -0.687556 -2.98098
upperback -0.847432 -0.966795 1.52335
thorax -1.61143 -0.445168 3.2656
lowerneck -16.9667 1.69214 -12.2936
upperneck 38.112 2.97267 0.744711
head 16.3642 -1.69231 2.66706
rclavicle -2.22639e-014 -1.07344e-014
rhumerus -31.2881 31.564 -92.0689
rradius 102.604
rwrist 53.6246
rhand 11.9207 -15.4228
rfingers 7.12502
rthumb 36.9457 -41.5013
lclavicle -2.22639e-014 -1.07344e-014
lhumerus -11.1925 -29.5293 93.3325
lradius 77.0654
lwrist -44.734
lhand -40.9733 30.4518
lfingers 7.12502
lthumb -13.9059 59.9668
rfemur -18.5677 2.74303 22.2532
rtibia 31.006
rfoot -15.6502 -2.51736
rtoes 8.78796
lfemur -19.7592 6.31356 -25.0357
ltibia 30.3059
lfoot -11.149 9.26454
ltoes -13.7043
810
root 1.90067 33.6427 -5.01027 -169.563 -13.5059 179.942
lowerback 1.3999 -0.670564 -3.21864
upperback -0.785964 -0.94625 1.53641
thorax -1.51457 -0.434707 3.41108
lowerneck -17.1205 1.656 -12.3196
upperneck 38.1484 2.95701 0.777213
head 16.4216 -1.69587 2.68704
rclavicle 7.72775e-015 -5.36719e-015
rhumerus -32.3632 31.6011 -92.2304
rradius 103.186
rwrist 53.656
rhand 10.8259 -15.4348
rfingers 7.12502
rthumb 35.9093 -41.7736
lclavicle 7.72775e-015 -5.36719e-015
lhumerus -10.9682 -29.8351 93.2375
lradius 77.1363
lwrist -44.7328
lhand -40.9799 30.0434
lfingers 7.12502
lthumb -13.9123 59.558
rfemur -18.6999 2.81971 22.16
rtibia 31.0254
rfoot -15.7082 -2.68352
rtoes 8.12559
lfemur -19.9974 6.50575 -25.1579
ltibia 30.5104
lfoot -11.3125 9.08996
ltoes -12.5868
811
root 1.89101 33.6335 -5.00524 -169.42 -13.5133 179.826
lowerback 1.4707 -0.744865 -3.54925
upperback -0.83508 -1.05413 1.6165
thorax -1.58911 -0.482544 3.68493
lowerneck -17.0266 1.75114 -12.4629
upperneck 38.1402 3.11924 0.763624
head 16.3785 -1.65835 2.73035
rclavicle 1.93815e-015 -9.14409e-015
rhumerus -33.533 31.9691 -92.3985
rradius 103.64
rwrist 53.6015
rhand 9.67437 -15.4144
rfingers 7.12502
rthumb 34.8174 -42.0129
lclavicle 1.93815e-015 -9.14409e-015
lhumerus -10.5186 -29.9532 93.1861
lradius 76.9199
lwrist -44.6246
lhand -41.1647 30.1681
lfingers 7.12502
lthumb -14.0904 59.6704
rfemur -18.8527 2.91508 21.9815
rtibia 31.1038
rfoot -15.9259 -2.72463
rtoes 8.39455
lfemur -20.2239 6.6279 -25.3712
ltibia 30.6811
lfoot -11.4546 8.97804
ltoes -11.6541
812
root 1.87941 33.622 -5.0015 -169.377 -13.5132 179.891
lowerback 1.52885 -0.702039 -3.57699
upperback -0.794292 -0.998845 1.55177
thorax -1.58541 -0.455139 3.63273
lowerneck -17.0103 1.733 -12.3524
upperneck 38.1254 3.03992 0.816443
head 16.3716 -1.66039 2.72247
rclavicle 7.37988e-015 8.15017e-015
rhumerus -34.4799 31.8841 -92.6494
rradius 103.913
rwrist 53.5718
rhand 8.43079 -15.3823
rfingers 7.12502
rthumb 33.6365 -42.246
lclavicle 7.37988e-015 8.15017e-015
lhumerus -10.6821 -30.2428 93.2341
lradius 77.1048
lwrist -44.8659
lhand -41.7424 31.2833
lfingers 7.12502
lthumb -14.647 60.746
rfemur -18.9308 2.95821 21.9926
rtibia 31.175
rfoot -16.1748 -2.65921
rtoes 8.38381
lfemur -20.3981 6.67636 -25.3706
ltibia 30.8915
lfoot -11.4173 9.15579
ltoes -11.4735
813
root 1.86981 33.6116 -4.99598 -169.39 -13.5224 179.944
lowerback 1.59675 -0.708053 -3.65815
upperback -0.694711 -1.0093 1.51732
thorax -1.51942 -0.462254 3.64318
lowerneck -17.0743 1.74068 -12.3318
upperneck 38.0942 3.0479 0.887884
head 16.3668 -1.63438 2.75479
rclavicle 1.72943e-014 2.98177e-015
rhumerus -35.306 31.929 -92.9076
rradius 104.085
rwrist 53.5521
rhand 7.15871 -15.3306
rfingers 7.12502
rthumb 32.4268 -42.45
lclavicle 1.72943e-014 2.98177e-015
lhumerus -11.2517 -30.1667 93.2724
lradius 77.6832
lwrist -45.2487
lhand -42.0251 30.8931
lfingers 7.12502
lthumb -14.9194 60.3358
rfemur -18.9566 3.03604 21.994
rtibia 31.2371
rfoot -16.3628 -2.63869
rtoes 8.52578
lfemur -20.7254 7.23096 -25.5209
ltibia 31.1239
lfoot -10.6674 9.5408
ltoes -15.8491
